<svg width="35" height="34" viewBox="0 0 35 34" fill="none" xmlns="http://www.w3.org/2000/svg">
<rect x="0.200195" width="34" height="34" rx="6" fill="white"/>
<path fill-rule="evenodd" clip-rule="evenodd" d="M20.6589 8.76882H20.6629C20.5825 8.30217 20.617 8 20.6208 8H17.4499V20.1863L17.4499 20.2185V20.2185C17.45 20.6354 17.4501 21.0382 17.3084 21.4409C17.0789 22.0988 16.5854 22.6955 15.9275 22.9594C15.0593 23.3075 14.3593 23.3152 13.5752 22.8982C13.5983 22.9295 13.6222 22.9602 13.6467 22.9903C13.6207 22.9585 13.5955 22.9262 13.5711 22.8932C13.464 22.8358 13.3569 22.7708 13.246 22.6981C12.305 22.0364 12.1329 21.0457 12.1367 20.3457C12.2476 19.3933 12.6225 18.8617 13.3263 18.3147C14.3361 17.5765 15.5945 17.9934 15.5945 17.9934V15.5181C15.596 15.5181 15.5975 15.5181 15.5991 15.5181V14.8066C15.0062 14.7225 14.4057 14.7301 13.8166 14.8334C13.4265 14.9061 13.044 15.017 12.6768 15.17C12.0916 15.3957 11.5446 15.7208 11.0627 16.1262C10.5157 16.5967 10.0567 17.1628 9.7048 17.7901C9.57092 18.0196 9.06603 18.9414 9.00483 20.437C8.96658 21.2861 9.22285 22.1659 9.34525 22.5292V22.5369C9.42175 22.7511 9.7201 23.4816 10.2059 24.0975C10.5998 24.5909 11.0588 25.0231 11.579 25.3827C11.4184 25.2182 11.2654 25.0461 11.1239 24.8663C10.6343 24.2428 10.3359 23.5046 10.2594 23.298V23.2942C10.1721 23.0265 10.01 22.4807 9.94446 21.8724C10.01 22.4753 10.1691 23.0175 10.2587 23.2833V23.2871C10.3352 23.4975 10.6335 24.2319 11.1231 24.8554C11.2646 25.0352 11.4176 25.2073 11.5783 25.3718L11.5859 25.3794C13.1197 26.416 14.8218 26.3471 14.8218 26.3471C14.8435 26.3463 14.869 26.3456 14.8979 26.3447C15.2624 26.3344 16.1857 26.3083 17.2239 25.8193C18.467 25.2341 19.1747 24.362 19.1747 24.362C19.1824 24.3525 19.1927 24.3404 19.2051 24.3256C19.3649 24.1365 19.8903 23.5145 20.238 22.6063C20.5249 21.8566 20.6205 20.9577 20.6205 20.5982V14.134C20.6587 14.157 21.1713 14.4936 21.1713 14.4936C21.1713 14.4936 21.9095 14.964 23.0608 15.27C23.887 15.488 25.0001 15.5339 25.0001 15.5339V13.0833C25.0002 13.0833 25.0003 13.0834 25.0004 13.0834V12.4064C24.6102 12.4484 23.8185 12.326 23.0076 11.9244C22.882 11.8597 22.7641 11.7913 22.6461 11.7153C22.6454 11.7144 22.6446 11.7136 22.6439 11.7128C22.3035 11.491 21.9898 11.2232 21.7106 10.9249C21.015 10.1337 20.7547 9.33103 20.6589 8.76882ZM22.6833 11.7554C22.7545 11.8305 22.8894 11.9649 23.0705 12.1177C22.8899 11.9648 22.755 11.83 22.6833 11.7554ZM14.0082 23.3526C14.0584 23.3938 14.1103 23.4332 14.1639 23.4707C14.3001 23.5606 14.433 23.6381 14.5637 23.7036C14.4342 23.6383 14.3027 23.5612 14.1681 23.472C14.113 23.4344 14.0597 23.3945 14.0082 23.3526Z" fill="#2B2D33"/>
</svg>
