<svg width="80" height="80" viewBox="0 0 80 80" fill="none" xmlns="http://www.w3.org/2000/svg">
<rect width="80" height="80" rx="20" fill="white"/>
<path fill-rule="evenodd" clip-rule="evenodd" d="M39.9705 40.8641C32.7929 40.8641 26.8318 34.9212 26.8318 27.8867C26.8318 20.6096 32.7929 14.6666 39.9705 14.6666C47.3913 14.6666 53.109 20.6096 53.109 27.8867C53.109 34.9212 47.3913 40.8641 39.9705 40.8641ZM39.9705 22.3076C36.9291 22.3076 34.6177 24.8545 34.6177 27.8867C34.6177 30.9188 36.9291 33.2232 39.9705 33.2232C43.1334 33.2232 45.3232 30.9188 45.3232 27.8867C45.3232 24.8545 43.1334 22.3076 39.9705 22.3076ZM45.2015 51.6584L52.6224 58.8143C54.0822 60.3909 54.0822 62.6954 52.6224 64.1508C51.0409 65.7275 48.6078 65.7275 47.3913 64.1508L39.9705 56.8737L32.7929 64.1508C32.0629 64.8785 31.0897 65.2424 29.9948 65.2424C29.1433 65.2424 28.17 64.8785 27.3185 64.1508C25.8587 62.6954 25.8587 60.3909 27.3185 58.8143L34.861 51.6584C32.0629 50.8095 29.5083 49.7179 27.0752 48.2625C25.2504 47.2922 24.8854 44.8665 25.8587 43.0473C27.0752 41.2279 29.2649 40.7429 31.2114 41.9557C36.5641 45.2304 43.3767 45.2304 48.7295 41.9557C50.6759 40.7429 52.9873 41.2279 54.0822 43.0473C55.1771 44.8665 54.6905 47.2922 52.9873 48.2625C50.6759 49.7179 47.9995 50.8095 45.2015 51.6584Z" fill="#2B2D33"/>
</svg>
