<svg width="80" height="80" viewBox="0 0 80 80" fill="none" xmlns="http://www.w3.org/2000/svg">
<rect width="80" height="80" rx="20" fill="white"/>
<path fill-rule="evenodd" clip-rule="evenodd" d="M21.508 38.3498C32.6033 33.6457 40.0019 30.5444 43.7038 29.0461C54.2735 24.768 56.4698 24.0248 57.9013 24.0003C58.2162 23.9949 58.9201 24.0708 59.3761 24.4309C59.7612 24.7349 59.8671 25.1456 59.9178 25.4339C59.9685 25.7221 60.0316 26.3788 59.9815 26.8919C59.4087 32.7483 56.9303 46.9603 55.6694 53.5196C55.1359 56.2951 54.0854 57.2257 53.0684 57.3168C50.8581 57.5147 49.1798 55.8954 47.0391 54.5299C43.6893 52.3931 41.7969 51.0629 38.5453 48.9778C34.7876 46.5681 37.2236 45.2436 39.3651 43.0792C39.9255 42.5127 49.6638 33.8931 49.8523 33.1111C49.8759 33.0133 49.8978 32.6488 49.6752 32.4563C49.4527 32.2638 49.1242 32.3297 48.8872 32.382C48.5512 32.4562 43.1999 35.8982 32.8332 42.7079C31.3143 43.7229 29.9384 44.2174 28.7057 44.1915C27.3468 44.1629 24.7327 43.4438 22.7895 42.8291C20.4059 42.0751 18.5116 41.6765 18.6765 40.396C18.7624 39.7291 19.7062 39.047 21.508 38.3498Z" fill="#2B2D33"/>
</svg>
